# xmcd
#
# Track frame offsets:
#	150
#	11828
#	29342
#	41978
#	53940
#	72830
#	87284
#	100312
#	118336
#
# Disc length: 1779 seconds
#
# Revision: 0
# Processed by: cddbd v1.5.2PL0 Copyright (c) Steve Scherf et al.
# Submitted via: dBpowerAMP V4.0
#
DISCID=7e06f109
DTITLE=Donovan Woods - the Hold Up
DYEAR=2007
DGENRE=country
TTITLE0=He Drinks Gas
TTITLE1=Virginia Firm
TTITLE2=My Cousin has a grey Cup Ring
TTITLE3=Brand New Gun
TTITLE4=I ain't Saying She's better then you
TTITLE5=Once a week
TTITLE6=Car won't start
TTITLE7=Nothing's Changed
TTITLE8=Wait and See
EXTD=
EXTT0=
EXTT1=
EXTT2=
EXTT3=
EXTT4=
EXTT5=
EXTT6=
EXTT7=
EXTT8=
PLAYORDER=
